<?xml version="1.0" encoding="utf-8"?>
<!-- Generator: Adobe Illustrator 16.0.0, SVG Export Plug-In . SVG Version: 6.00 Build 0)  -->
<!DOCTYPE svg PUBLIC "-//W3C//DTD SVG 1.1//EN" "http://www.w3.org/Graphics/SVG/1.1/DTD/svg11.dtd">
<svg version="1.1" id="Livello_1" xmlns="http://www.w3.org/2000/svg" xmlns:xlink="http://www.w3.org/1999/xlink" x="0px" y="0px"
	 width="96px" height="96px" viewBox="0 0 96 96" enable-background="new 0 0 96 96" xml:space="preserve">
<path fill-opacity="0.4" d="M88,49c0,29.633-10.363,40-40,40C18.365,89,8,78.633,8,49C8,19.365,18.365,9,48,9
	C77.637,9,88,19.365,88,49z"/>
<path fill="#CF1417" d="M88,48c0,29.633-10.363,40-40,40C18.365,88,8,77.633,8,48C8,18.365,18.365,8,48,8C77.637,8,88,18.365,88,48z
	"/>
<rect fill="none" width="96" height="96"/>
<path opacity="0.07" fill="#231F20" enable-background="new    " d="M75.438,79.652c-0.316,0-0.629-0.051-0.929-0.147l-13.69-4.396
	c-4.114,2.053-8.588,3.094-13.302,3.094c-16.517,0-29.955-13.438-29.955-29.955c0-16.487,13.461-29.9,30.008-29.9
	c16.488,0,29.902,13.437,29.902,29.953c0,5.001-1.244,9.907-3.599,14.213L78.281,75.7c0.361,1.081,0.089,2.255-0.711,3.063
	C77.014,79.327,76.234,79.652,75.438,79.652z M51.525,59.123c2.817,1.018,4.05,1.256,4.584,1.256c0.105,0,0.146-0.009,0.363-0.061
	c0.316-0.074,0.657-0.149,1.076-0.188c0.59-0.055,2.529-1.284,2.764-1.754c0.123-0.358,0.205-0.692,0.262-0.97
	c-1.352-0.666-3.032-1.482-4.076-1.973c-0.582,0.729-1.305,1.577-1.855,2.215c-0.871,0.979-1.916,1.474-3.11,1.474
	C51.529,59.123,51.527,59.123,51.525,59.123z M36.656,36.665c-0.022,0.017-0.055,0.044-0.097,0.086
	c-0.698,0.701-1.87,1.876-1.87,4.403c0,2.154,1.324,4.469,2.198,5.762c-0.288-1.081-0.254-2.61,1.28-4.122
	c0.176-0.156,0.336-0.36,0.49-0.557c0.168-0.215,0.33-0.42,0.494-0.61c0.016-0.019,0.028-0.033,0.041-0.05
	c-0.017-0.078-0.03-0.156-0.04-0.235c-0.15-0.463-0.686-1.919-1.811-4.641c-0.054-0.003-0.107-0.006-0.161-0.01
	C36.984,36.679,36.823,36.668,36.656,36.665z"/>
<path opacity="0.07" fill="#231F20" enable-background="new    " d="M75.438,78.902c-0.237,0-0.472-0.037-0.694-0.11l-13.987-4.491
	c-4.085,2.092-8.537,3.152-13.239,3.152c-16.104,0-29.205-13.102-29.205-29.205c0-16.074,13.125-29.15,29.258-29.15
	c16.075,0,29.151,13.101,29.151,29.203c0,4.991-1.266,9.872-3.664,14.139l4.516,13.498c0.271,0.813,0.066,1.691-0.533,2.297
	C76.62,78.658,76.036,78.902,75.438,78.902z M36.561,35.914c-0.148,0-0.326,0.103-0.53,0.305c-0.73,0.732-2.091,2.097-2.091,4.937
	c0,2.749,1.921,5.655,2.747,6.777c0.044,0.058,0.126,0.175,0.244,0.349c3.547,5.234,7.891,9.054,12.232,10.754
	c3.567,1.39,5.905,2.095,6.948,2.095c0.197,0,0.304-0.024,0.537-0.081c0.304-0.07,0.603-0.137,0.97-0.17
	c0.829-0.077,3.139-1.516,3.396-2.232c0.213-0.621,0.336-1.215,0.393-1.674L61.1,56.832c-1.586-0.785-3.867-1.893-4.826-2.327
	c-0.623,0.817-1.602,1.966-2.197,2.654c-0.719,0.809-1.573,1.215-2.544,1.215c-0.578,0-1.16-0.146-1.833-0.456
	c-0.129-0.063-0.243-0.111-0.381-0.17c-1.229-0.527-3.708-1.589-6.51-4.09c-2.668-2.452-4.469-5.419-4.802-5.989
	c-0.505-0.873-1.084-2.592,0.689-4.339c0.196-0.172,0.378-0.404,0.554-0.629c0.161-0.206,0.315-0.402,0.471-0.583
	c0.111-0.129,0.159-0.21,0.275-0.444c-0.054-0.16-0.088-0.323-0.105-0.488c-0.101-0.33-0.62-1.805-2.037-5.21
	c-0.21-0.006-0.415-0.019-0.625-0.032C36.997,35.928,36.791,35.914,36.561,35.914z"/>
<path opacity="0.07" fill="#231F20" enable-background="new    " d="M75.438,78.152c-0.156,0-0.313-0.024-0.461-0.073l-14.289-4.588
	c-4.055,2.132-8.482,3.212-13.171,3.212c-15.69,0-28.455-12.766-28.455-28.455c0-15.66,12.789-28.4,28.508-28.4
	c15.66,0,28.402,12.764,28.402,28.453c0,4.981-1.289,9.834-3.732,14.059l4.621,13.816c0.182,0.541,0.045,1.127-0.354,1.531
	C76.227,77.99,75.837,78.152,75.438,78.152z M36.561,35.164c-0.358,0-0.705,0.171-1.059,0.523c-0.749,0.751-2.313,2.317-2.313,5.467
	c0,2.971,2.023,6.04,2.893,7.222c0.046,0.061,0.12,0.167,0.228,0.325c3.631,5.357,8.098,9.275,12.579,11.031
	c3.707,1.443,6.069,2.146,7.223,2.146c0.281,0,0.453-0.04,0.711-0.103c0.279-0.064,0.545-0.123,0.861-0.151
	c1.017-0.095,3.652-1.657,4.037-2.728c0.357-1.043,0.461-1.932,0.473-2.392c-0.127-0.058-0.779-0.356-0.779-0.356
	c-1.54-0.764-4.749-2.324-5.271-2.52c-0.022-0.008-0.072-0.023-0.127-0.043c-0.496,0.73-1.774,2.234-2.507,3.08
	c-0.565,0.637-1.229,0.955-1.977,0.955c-0.466,0-0.948-0.123-1.519-0.387c-0.134-0.065-0.271-0.123-0.438-0.194
	c-1.168-0.501-3.557-1.524-6.269-3.944c-2.586-2.376-4.331-5.256-4.655-5.809c-0.483-0.834-0.774-2.103,0.568-3.426
	c0.218-0.188,0.425-0.454,0.626-0.71c0.146-0.187,0.293-0.374,0.441-0.546c0.198-0.23,0.275-0.389,0.444-0.735l0.084-0.172
	c-0.007-0.018-0.018-0.041-0.032-0.069c-0.089-0.179-0.142-0.378-0.154-0.58c-0.08-0.311-0.68-1.99-2.127-5.464
	c-0.07-0.175-0.126-0.292-0.168-0.368c-0.085,0.006-0.164,0.01-0.241,0.01c-0.28,0-0.545-0.016-0.818-0.034
	C37.038,35.179,36.813,35.164,36.561,35.164z"/>
<path opacity="0.07" fill="#231F20" enable-background="new    " d="M75.438,77.402c-0.076,0-0.153-0.012-0.229-0.036L60.613,72.68
	c-4.021,2.174-8.426,3.273-13.097,3.273c-15.277,0-27.705-12.43-27.705-27.705c0-15.247,12.452-27.65,27.758-27.65
	c15.248,0,27.652,12.428,27.652,27.703c0,4.971-1.313,9.794-3.802,13.973l4.729,14.142c0.09,0.269,0.021,0.563-0.178,0.767
	C75.829,77.324,75.637,77.402,75.438,77.402z M36.561,34.414c-0.559,0-1.093,0.25-1.587,0.741c-0.787,0.789-2.534,2.539-2.534,5.999
	c0,3.194,2.125,6.425,3.039,7.667c0.046,0.062,0.113,0.158,0.21,0.302c3.716,5.483,8.307,9.499,12.927,11.31
	c3.848,1.498,6.229,2.197,7.495,2.197c0.373,0,0.613-0.059,0.893-0.123c0.237-0.057,0.469-0.109,0.746-0.134
	c1.271-0.118,4.174-1.82,4.677-3.222c0.544-1.584,0.563-2.868,0.478-3.135c-0.051-0.033-0.457-0.219-0.815-0.382l-0.358-0.166
	c-1.172-0.579-4.719-2.315-5.326-2.541c-0.205-0.071-0.43-0.146-0.569-0.146c-0.051,0-0.155,0-0.37,0.283
	c-0.458,0.699-1.777,2.252-2.521,3.111c-0.418,0.471-0.877,0.695-1.408,0.695c-0.354,0-0.737-0.102-1.204-0.316
	c-0.128-0.063-0.282-0.13-0.474-0.211c-1.11-0.477-3.423-1.467-6.047-3.808c-2.5-2.297-4.193-5.091-4.507-5.628
	c-0.764-1.32,0.116-2.187,0.447-2.513c0.236-0.201,0.467-0.497,0.69-0.783c0.139-0.178,0.278-0.355,0.418-0.518
	c0.262-0.304,0.371-0.527,0.551-0.896l0.112-0.229c0.088-0.174,0.105-0.34-0.062-0.675c-0.052-0.104-0.079-0.218-0.079-0.334
	c-0.044-0.291-0.747-2.219-2.183-5.665c-0.338-0.846-0.56-0.846-0.633-0.846c-0.063,0-0.125,0.006-0.185,0.011
	c-0.097,0.008-0.192,0.015-0.283,0.015c-0.264,0-0.513-0.016-0.77-0.032C37.084,34.431,36.837,34.414,36.561,34.414z"/>
<path opacity="0.3" fill="#231F20" enable-background="new    " d="M70.6,62.182c2.475-4.033,3.871-8.77,3.871-13.881
	c0-14.9-12.051-26.953-26.901-26.953c-14.9,0-27.008,11.998-27.008,26.9c0,14.902,12.107,26.955,26.955,26.955
	c4.735,0,9.146-1.184,13.021-3.336l14.901,4.785L70.6,62.182z M63.132,59.404c-0.644,1.791-3.905,3.584-5.315,3.715
	c-1.41,0.125-1.41,1.152-9.475-1.99c-8.005-3.135-13.063-11.332-13.448-11.838c-0.382-0.52-3.204-4.293-3.204-8.137
	c0-3.842,1.99-5.764,2.755-6.531c0.771-0.766,1.539-0.959,2.116-0.959c0.572,0,1.024,0.064,1.533,0.064
	c0.51,0,1.153-0.322,1.794,1.281c0.639,1.533,2.24,5.441,2.24,5.953c0.191,0.385,0.318,0.832,0.062,1.344
	c-0.254,0.51-0.382,0.834-0.766,1.279c-0.387,0.449-0.768,1.024-1.15,1.346c-0.39,0.384-0.771,0.83-0.326,1.6
	c0.45,0.77,2.053,3.328,4.358,5.447c3.007,2.682,5.566,3.518,6.336,3.896c0.83,0.385,1.278,0.319,1.73-0.188
	c0.441-0.512,1.98-2.299,2.49-3.074c0.58-0.77,1.096-0.635,1.799-0.389c0.701,0.26,4.609,2.182,5.382,2.564
	c0.831,0.387,1.347,0.58,1.531,0.9C63.771,56.006,63.771,57.543,63.132,59.404z"/>
<linearGradient id="SVGID_1_" gradientUnits="userSpaceOnUse" x1="39.6006" y1="-7.1528" x2="39.6006" y2="51.3135" gradientTransform="matrix(1 0 0 -1 8.3999 72.0098)">
	<stop  offset="0" style="stop-color:#D0CBC5"/>
	<stop  offset="0.5031" style="stop-color:#FAFCEF"/>
	<stop  offset="0.9693" style="stop-color:#FFFFFF"/>
	<stop  offset="1" style="stop-color:#FFFFFF"/>
</linearGradient>
<path fill="url(#SVGID_1_)" d="M70.6,61.182c2.475-4.033,3.871-8.77,3.871-13.88c0-14.901-12.051-26.954-26.901-26.954
	c-14.9,0-27.008,11.999-27.008,26.901c0,14.901,12.107,26.955,26.955,26.955c4.735,0,9.146-1.185,13.021-3.336l14.901,4.784
	L70.6,61.182z M63.132,58.404c-0.644,1.791-3.905,3.584-5.315,3.715c-1.41,0.125-1.41,1.152-9.475-1.99
	c-8.005-3.135-13.063-11.332-13.448-11.838c-0.382-0.52-3.204-4.293-3.204-8.136c0-3.842,1.99-5.764,2.755-6.532
	c0.771-0.766,1.539-0.959,2.116-0.959c0.572,0,1.024,0.065,1.533,0.065c0.51,0,1.153-0.322,1.794,1.281
	c0.639,1.534,2.24,5.441,2.24,5.953c0.191,0.384,0.318,0.833,0.062,1.344c-0.254,0.51-0.382,0.833-0.766,1.279
	c-0.387,0.449-0.768,1.024-1.15,1.345c-0.39,0.384-0.771,0.83-0.326,1.6c0.45,0.769,2.053,3.328,4.358,5.447
	c3.007,2.682,5.566,3.518,6.336,3.896c0.83,0.385,1.278,0.319,1.73-0.188c0.441-0.512,1.98-2.299,2.49-3.074
	c0.58-0.77,1.096-0.635,1.799-0.389c0.701,0.26,4.609,2.182,5.382,2.564c0.831,0.387,1.347,0.58,1.531,0.9
	C63.771,55.006,63.771,56.543,63.132,58.404z"/>
<linearGradient id="SVGID_2_" gradientUnits="userSpaceOnUse" x1="2051.3818" y1="-2640.0078" x2="2051.3818" y2="-2719.2539" gradientTransform="matrix(1 0 0 -1 -2003.3828 -2631.7539)">
	<stop  offset="0" style="stop-color:#FFFFFF"/>
	<stop  offset="1" style="stop-color:#FFFFFF;stop-opacity:0"/>
</linearGradient>
<path fill="url(#SVGID_2_)" fill-opacity="0.25" d="M48,8C18.365,8,8,18.365,8,48c0,29.633,10.365,40,40,40
	c29.637,0,40-10.367,40-40C88,18.365,77.637,8,48,8z M48,87C18.842,87,9,77.158,9,48S18.842,9,48,9s39,9.842,39,39S77.158,87,48,87z
	"/>
</svg>
